<svg xmlns="http://www.w3.org/2000/svg" version="1.1" xmlns:xlink="http://www.w3.org/1999/xlink" xmlns:svgjs="http://svgjs.dev/svgjs" width="2000" height="328" viewBox="0 0 2000 328"><g transform="matrix(1,0,0,1,-1.2121212121212466,-0.3094445985383629)"><svg viewBox="0 0 396 65" data-background-color="#ffffff" preserveAspectRatio="xMidYMid meet" height="328" width="2000" xmlns="http://www.w3.org/2000/svg" xmlns:xlink="http://www.w3.org/1999/xlink"><g id="tight-bounds" transform="matrix(1,0,0,1,0.2400000000000091,0.061322862515226007)"><svg viewBox="0 0 395.52 64.87735427496958" height="64.87735427496958" width="395.52"><g><svg viewBox="0 0 395.52 64.87735427496958" height="64.87735427496958" width="395.52"><g><svg viewBox="0 0 395.52 64.87735427496958" height="64.87735427496958" width="395.52"><g id="textblocktransform"><svg viewBox="0 0 395.52 64.87735427496958" height="64.87735427496958" width="395.52" id="textblock"><g><svg viewBox="0 0 395.52 64.87735427496958" height="64.87735427496958" width="395.52"><g transform="matrix(1,0,0,1,0,0)"><svg width="395.52" viewBox="1.34 -35.45 220.72 36.21" height="64.87735427496958" data-palette-color="#059668"><path d="M37.55-17.36L37.55-17.36Q37.55-14.87 36.9-12.56 36.25-10.25 35.08-8.24 33.91-6.23 32.25-4.57 30.59-2.91 28.59-1.72 26.59-0.54 24.27 0.11 21.95 0.76 19.46 0.76L19.46 0.76Q16.97 0.76 14.66 0.11 12.35-0.54 10.34-1.72 8.33-2.91 6.67-4.57 5-6.23 3.82-8.24 2.64-10.25 1.99-12.56 1.34-14.87 1.34-17.36L1.34-17.36Q1.34-19.85 1.99-22.17 2.64-24.49 3.82-26.49 5-28.49 6.67-30.15 8.33-31.81 10.34-32.98 12.35-34.16 14.66-34.8 16.97-35.45 19.46-35.45L19.46-35.45Q21.95-35.45 24.27-34.8 26.59-34.16 28.59-32.98 30.59-31.81 32.25-30.15 33.91-28.49 35.08-26.49 36.25-24.49 36.9-22.17 37.55-19.85 37.55-17.36ZM30.59-17.36L30.59-17.36Q30.59-19.65 29.71-21.69 28.83-23.73 27.33-25.23 25.83-26.73 23.79-27.61 21.75-28.49 19.46-28.49L19.46-28.49Q17.14-28.49 15.11-27.61 13.09-26.73 11.57-25.23 10.06-23.73 9.18-21.69 8.3-19.65 8.3-17.36L8.3-17.36Q8.3-15.06 9.18-13.05 10.06-11.04 11.57-9.52 13.09-8.01 15.11-7.13 17.14-6.25 19.46-6.25L19.46-6.25Q21.75-6.25 23.79-7.13 25.83-8.01 27.33-9.52 28.83-11.04 29.71-13.05 30.59-15.06 30.59-17.36ZM70.19-17.5L70.19-17.5Q70.19-15.09 69.57-12.85 68.94-10.62 67.8-8.68 66.65-6.74 65.06-5.14 63.47-3.54 61.52-2.39 59.57-1.25 57.33-0.62 55.1 0 52.68 0L52.68 0 42.14 0 42.14-35.01 52.68-35.01Q55.1-35.01 57.33-34.39 59.57-33.76 61.52-32.62 63.47-31.47 65.06-29.87 66.65-28.27 67.8-26.33 68.94-24.39 69.57-22.16 70.19-19.92 70.19-17.5ZM63.18-17.5L63.18-17.5Q63.18-19.68 62.36-21.58 61.55-23.49 60.12-24.91 58.69-26.34 56.77-27.17 54.86-28 52.68-28L52.68-28 49.19-28 49.19-7.01 52.68-7.01Q54.86-7.01 56.77-7.82 58.69-8.64 60.12-10.07 61.55-11.5 62.36-13.42 63.18-15.33 63.18-17.5ZM90.57-10.96L90.57 0 83.59 0 83.59-10.96Q81.27-11.55 79.33-12.84 77.39-14.14 76-15.93 74.6-17.72 73.84-19.91 73.07-22.09 73.07-24.51L73.07-24.51 73.07-35.01 80.07-35.01 80.07-24.51Q80.07-23.07 80.62-21.79 81.17-20.51 82.12-19.56 83.08-18.6 84.36-18.05 85.64-17.5 87.08-17.5L87.08-17.5Q88.52-17.5 89.8-18.05 91.08-18.6 92.04-19.56 92.99-20.51 93.54-21.79 94.09-23.07 94.09-24.51L94.09-24.51 94.09-35.01 101.07-35.01 101.07-24.51Q101.07-22.09 100.3-19.91 99.53-17.72 98.14-15.93 96.75-14.14 94.82-12.84 92.89-11.55 90.57-10.96L90.57-10.96ZM103.78-24.51L103.78-24.51Q103.78-26.68 104.61-28.59 105.44-30.49 106.87-31.92 108.29-33.35 110.2-34.18 112.1-35.01 114.27-35.01L114.27-35.01 130.34-35.01 130.34-28 114.27-28Q113.54-28 112.91-27.73 112.27-27.47 111.8-26.99 111.32-26.51 111.05-25.88 110.78-25.24 110.78-24.51L110.78-24.51Q110.78-23.78 111.05-23.13 111.32-22.49 111.8-22.01 112.27-21.53 112.91-21.26 113.54-21 114.27-21L114.27-21 121.28-21Q123.45-21 125.37-20.18 127.29-19.36 128.72-17.93 130.14-16.5 130.96-14.59 131.78-12.67 131.78-10.5L131.78-10.5Q131.78-8.33 130.96-6.42 130.14-4.52 128.72-3.09 127.29-1.66 125.37-0.83 123.45 0 121.28 0L121.28 0 105.73 0 105.73-7.01 121.28-7.01Q122.01-7.01 122.65-7.28 123.28-7.54 123.76-8.02 124.24-8.5 124.5-9.13 124.77-9.77 124.77-10.5L124.77-10.5Q124.77-11.23 124.5-11.87 124.24-12.5 123.76-12.98 123.28-13.45 122.65-13.72 122.01-13.99 121.28-13.99L121.28-13.99 114.27-13.99Q112.1-13.99 110.2-14.82 108.29-15.65 106.87-17.08 105.44-18.51 104.61-20.42 103.78-22.34 103.78-24.51ZM134.32-24.51L134.32-24.51Q134.32-26.68 135.15-28.59 135.98-30.49 137.4-31.92 138.83-33.35 140.74-34.18 142.64-35.01 144.81-35.01L144.81-35.01 160.88-35.01 160.88-28 144.81-28Q144.08-28 143.45-27.73 142.81-27.47 142.34-26.99 141.86-26.51 141.59-25.88 141.32-25.24 141.32-24.51L141.32-24.51Q141.32-23.78 141.59-23.13 141.86-22.49 142.34-22.01 142.81-21.53 143.45-21.26 144.08-21 144.81-21L144.81-21 151.82-21Q153.99-21 155.91-20.18 157.83-19.36 159.26-17.93 160.68-16.5 161.5-14.59 162.32-12.67 162.32-10.5L162.32-10.5Q162.32-8.33 161.5-6.42 160.68-4.52 159.26-3.09 157.83-1.66 155.91-0.83 153.99 0 151.82 0L151.82 0 136.27 0 136.27-7.01 151.82-7.01Q152.55-7.01 153.19-7.28 153.82-7.54 154.3-8.02 154.78-8.5 155.04-9.13 155.31-9.77 155.31-10.5L155.31-10.5Q155.31-11.23 155.04-11.87 154.78-12.5 154.3-12.98 153.82-13.45 153.19-13.72 152.55-13.99 151.82-13.99L151.82-13.99 144.81-13.99Q142.64-13.99 140.74-14.82 138.83-15.65 137.4-17.08 135.98-18.51 135.15-20.42 134.32-22.34 134.32-24.51ZM190.91-7.01L190.91 0 166.91 0 166.91-35.01 190.91-35.01 190.91-28 173.91-28 173.91-21 185.41-21 185.41-13.99 173.91-13.99 173.91-7.01 190.91-7.01ZM211.56-10.96L211.56 0 204.57 0 204.57-10.96Q202.26-11.55 200.31-12.84 198.37-14.14 196.98-15.93 195.59-17.72 194.82-19.91 194.05-22.09 194.05-24.51L194.05-24.51 194.05-35.01 201.06-35.01 201.06-24.51Q201.06-23.07 201.61-21.79 202.16-20.51 203.11-19.56 204.06-18.6 205.34-18.05 206.63-17.5 208.07-17.5L208.07-17.5Q209.51-17.5 210.79-18.05 212.07-18.6 213.02-19.56 213.97-20.51 214.52-21.79 215.07-23.07 215.07-24.51L215.07-24.51 215.07-35.01 222.06-35.01 222.06-24.51Q222.06-22.09 221.29-19.91 220.52-17.72 219.13-15.93 217.73-14.14 215.81-12.84 213.88-11.55 211.56-10.96L211.56-10.96Z" opacity="1" transform="matrix(1,0,0,1,0,0)" fill="#059668" class="wordmark-text-0" data-fill-palette-color="primary" id="text-0"></path></svg></g></svg></g></svg></g></svg></g></svg></g><defs></defs></svg><rect width="395.52" height="64.87735427496958" fill="none" stroke="none" visibility="hidden"></rect></g></svg></g></svg>